<svg width="1440" height="242" viewBox="0 0 1440 242" fill="none" xmlns="http://www.w3.org/2000/svg">
<path d="M1699 155.58C1699 155.58 1573.63 117.401 1458.56 114.737C1341.77 112.073 1242.16 114.737 1099.61 128.055C905.533 145.813 531.127 217.732 331.901 178.665C132.676 139.598 124.089 137.822 22.7586 112.961C-90.594 84.5485 -320.733 27.7236 -605.832 30.3872C-909.822 33.0508 -1461.13 177.777 -1687.83 170.674C-1711.88 169.786 -1801.18 163.57 -1868.17 152.916C-1933.43 142.261 -2029.61 119.176 -2160.13 111.185C-2215.09 107.633 -2302.68 101.418 -2404.01 103.194C-2429.77 104.082 -2512.21 106.745 -2610.11 117.4C-2708 128.055 -2799.03 144.925 -2881.47 150.252C-3058.37 160.019 -3170 145.813 -3170 145.813L-3170 241.705L1699 241.705L1699 155.58ZM1309.14 141.374C1297.11 150.252 1274.79 144.925 1235.29 144.925C1195.78 144.925 1130.52 155.58 1135.67 154.692C1140.83 153.804 1188.91 141.374 1238.72 137.822C1290.24 133.383 1319.44 132.495 1309.14 141.374ZM993.124 165.346C993.124 165.346 951.905 167.122 896.946 173.337C841.987 180.441 720.047 198.198 637.609 204.414C496.778 214.18 366.251 204.414 378.273 203.526C392.013 202.638 543.149 208.853 680.546 193.759C737.222 187.544 840.27 174.225 893.511 169.786C950.187 164.459 993.124 165.346 993.124 165.346ZM10.7363 166.234C39.9331 172.45 -217.686 124.503 -306.994 112.073C-343.061 106.746 -413.476 97.8668 -478.74 94.3152C-545.721 90.7637 -631.594 90.7637 -629.876 89.8758C-629.876 88.1 -530.263 82.7727 -437.521 89.8758C-344.778 96.9789 -348.213 99.6426 -306.994 104.082C-241.73 111.185 -18.4604 160.019 10.7363 166.234ZM249.463 180.441C252.898 180.441 235.724 183.992 167.025 170.674C98.3269 157.355 51.9553 139.598 48.5205 137.822C45.0855 136.934 108.632 153.804 161.873 164.459C213.397 175.113 247.746 180.441 249.463 180.441ZM1690.41 188.432C1688.69 187.544 1657.78 178.665 1607.97 166.234C1558.17 153.804 1489.47 141.374 1492.9 142.261C1496.34 142.261 1553.02 147.589 1620 164.459C1686.98 181.329 1692.13 189.32 1690.41 188.432ZM-2632.43 138.709C-2630.72 140.485 -2665.07 140.485 -2709.72 149.364C-2754.37 158.243 -2802.46 163.57 -2843.68 167.122C-2912.38 174.225 -3044.63 166.234 -3037.76 165.346C-3032.6 164.458 -2896.92 168.01 -2823.07 159.131C-2785.29 154.691 -2781.85 154.691 -2725.18 144.925C-2668.5 135.158 -2634.15 136.046 -2632.43 138.709ZM-1916.25 160.019C-1909.38 160.907 -1856.14 174.225 -1771.99 183.104C-1687.83 192.871 -1619.13 187.543 -1619.13 190.207C-1619.13 192.871 -1636.31 198.198 -1725.62 192.871C-1814.92 187.543 -1923.12 159.131 -1916.25 160.019ZM-1940.3 182.216C-1936.86 181.328 -1881.9 193.759 -1842.4 197.31C-1802.9 199.974 -1809.77 201.75 -1809.77 202.638C-1809.77 203.525 -1828.66 204.413 -1856.14 200.862C-1885.34 196.422 -1943.73 183.104 -1940.3 182.216ZM-1562.46 202.638C-1560.74 200.862 -1502.35 195.535 -1466.28 186.656C-1430.21 177.777 -1435.37 181.328 -1433.65 182.216C-1431.93 183.104 -1447.39 189.319 -1474.87 193.759C-1502.35 199.086 -1564.17 204.413 -1562.46 202.638ZM-2046.78 143.149C-2048.5 140.485 -2041.63 138.71 -2014.15 144.925C-1986.67 151.14 -1969.5 156.467 -1976.37 155.579C-1983.23 154.692 -1991.82 152.028 -2019.3 148.476C-2048.5 144.925 -2045.06 145.813 -2046.78 143.149ZM-2577.48 131.606C-2580.91 131.606 -2541.41 124.503 -2520.8 123.615C-2500.19 122.728 -2486.45 122.727 -2486.45 125.391C-2486.45 128.055 -2488.17 129.831 -2513.93 128.943C-2541.41 128.055 -2574.04 131.606 -2577.48 131.606ZM-556.026 54.3602C-557.743 53.4723 -597.245 57.0239 -684.835 57.0239C-770.708 57.0239 -918.41 78.3332 -980.238 88.1C-1042.07 97.8667 -808.492 53.4723 -696.857 51.6965C-585.222 49.9208 -554.308 55.2481 -556.026 54.3602Z" fill="#0e0e0e"/>
<path d="M1460.27 81.8849C1458.56 82.7728 1381.27 79.2213 1336.62 81.8849C1211.24 88.1002 1044.65 110.297 1051.52 107.634C1058.39 104.97 1286.81 80.1092 1343.49 78.3334C1427.64 74.7818 1461.99 81.8849 1460.27 81.8849Z" fill="#0e0e0e"/>
<path d="M735.505 154.692C732.07 155.58 658.219 163.571 572.346 165.346C486.473 167.122 354.229 160.019 361.099 160.907C366.251 161.795 462.429 176.889 589.521 171.562C716.613 166.234 738.94 153.804 735.505 154.692Z" fill="#0e0e0e"/>
<path d="M342.206 122.728C340.489 123.616 376.556 131.607 397.165 132.495C417.775 133.383 431.514 132.495 431.514 129.831C431.514 127.167 429.797 125.392 404.035 126.279C374.838 127.167 343.924 121.84 342.206 122.728Z" fill="#0e0e0e"/>
<path d="M282.095 147.589C282.095 148.477 206.527 136.934 173.895 128.055C141.264 120.064 67.4131 100.531 69.1305 100.531C70.848 99.6429 141.264 114.737 177.33 123.616C213.397 132.495 282.095 146.701 282.095 147.589Z" fill="#0e0e0e"/>
</svg>
